<?xml version="1.0" encoding="utf-8"?>
<!-- Generator: Adobe Illustrator 16.0.0, SVG Export Plug-In . SVG Version: 6.00 Build 0)  -->
<!DOCTYPE svg PUBLIC "-//W3C//DTD SVG 1.1//EN" "http://www.w3.org/Graphics/SVG/1.1/DTD/svg11.dtd">
<svg version="1.1" id="Layer_1" xmlns="http://www.w3.org/2000/svg" xmlns:xlink="http://www.w3.org/1999/xlink" x="0px" y="0px"
	 width="255px" height="55px" viewBox="0 0 255 55" enable-background="new 0 0 255 55" xml:space="preserve">
<g>
	<path fill="#FFFFFF" d="M58.799,50.979c0,1.137-0.364,2.079-1.092,2.826c-0.729,0.747-1.674,1.12-2.839,1.12
		c-1.134,0-2.058-0.373-2.77-1.12c-0.713-0.747-1.069-1.689-1.069-2.826v-1.673c0-1.133,0.355-2.073,1.065-2.822
		c0.711-0.749,1.635-1.124,2.773-1.124c1.16,0,2.105,0.375,2.835,1.124c0.73,0.749,1.096,1.689,1.096,2.822V50.979z M57.215,49.293
		c0-0.774-0.211-1.411-0.633-1.909c-0.421-0.498-0.992-0.747-1.714-0.747c-0.699,0-1.25,0.249-1.652,0.747
		c-0.401,0.498-0.603,1.135-0.603,1.909v1.686c0,0.783,0.202,1.426,0.606,1.926c0.403,0.5,0.953,0.75,1.648,0.75
		c0.726,0,1.298-0.249,1.718-0.747c0.419-0.498,0.629-1.141,0.629-1.929V49.293z"/>
	<path fill="#FFFFFF" d="M67.49,54.791h-1.584l-4.204-6.698l-0.039,0.013v6.686h-1.584v-9.298h1.584l4.204,6.699l0.039-0.013v-6.687
		h1.584V54.791z"/>
	<path fill="#FFFFFF" d="M72.963,51.464h-3.846v-1.251h3.846V51.464z"/>
	<path fill="#FFFFFF" d="M74.615,54.791v-9.298h3.135c1.204,0,2.183,0.368,2.937,1.104c0.754,0.737,1.131,1.685,1.131,2.842v1.411
		c0,1.163-0.377,2.11-1.131,2.842c-0.754,0.732-1.732,1.099-2.937,1.099H74.615z M76.199,46.738v6.813h1.551
		c0.761,0,1.364-0.252,1.813-0.756c0.447-0.505,0.671-1.153,0.671-1.945v-1.424c0-0.783-0.224-1.427-0.671-1.932
		c-0.448-0.504-1.052-0.757-1.813-0.757H76.199z"/>
	<path fill="#FFFFFF" d="M88.456,50.608h-3.715v2.943h4.38v1.239h-5.964v-9.298h5.918v1.245h-4.334v2.625h3.715V50.608z"/>
	<path fill="#FFFFFF" d="M94.951,52.646h0.039l2.744-7.152h2.021v9.298h-1.584v-6.68l-0.039-0.006l-2.613,6.686H94.43l-2.659-6.813
		l-0.039,0.013v6.801h-1.584v-9.298h2.079L94.951,52.646z"/>
	<path fill="#FFFFFF" d="M106.296,52.62h-3.362l-0.73,2.171h-1.636l3.311-9.298h1.506l3.272,9.298h-1.637L106.296,52.62z
		 M103.37,51.323h2.496l-1.219-3.665h-0.039L103.37,51.323z"/>
	<path fill="#FFFFFF" d="M116.839,54.791h-1.584l-4.204-6.698l-0.039,0.013v6.686h-1.584v-9.298h1.584l4.204,6.699l0.039-0.013
		v-6.687h1.584V54.791z"/>
	<path fill="#FFFFFF" d="M118.433,54.791v-9.298h3.136c1.203,0,2.182,0.368,2.936,1.104c0.754,0.737,1.131,1.685,1.131,2.842v1.411
		c0,1.163-0.377,2.11-1.131,2.842c-0.754,0.732-1.732,1.099-2.936,1.099H118.433z M120.017,46.738v6.813h1.552
		c0.76,0,1.364-0.252,1.812-0.756c0.447-0.505,0.672-1.153,0.672-1.945v-1.424c0-0.783-0.225-1.427-0.672-1.932
		c-0.447-0.504-1.052-0.757-1.812-0.757H120.017z"/>
	<path fill="#FFFFFF" d="M134.897,52.402c0-0.387-0.14-0.704-0.42-0.951s-0.777-0.468-1.489-0.664
		c-1.021-0.276-1.809-0.64-2.363-1.089c-0.554-0.449-0.831-1.035-0.831-1.759c0-0.75,0.305-1.367,0.913-1.853
		s1.391-0.728,2.346-0.728c1.026,0,1.846,0.27,2.461,0.808c0.615,0.539,0.911,1.204,0.89,1.995l-0.013,0.039h-1.525
		c0-0.49-0.166-0.879-0.499-1.169c-0.332-0.289-0.774-0.435-1.326-0.435c-0.534,0-0.946,0.124-1.235,0.371s-0.433,0.566-0.433,0.958
		c0,0.357,0.158,0.652,0.476,0.884c0.316,0.232,0.843,0.452,1.577,0.661c0.995,0.272,1.753,0.644,2.274,1.114
		s0.782,1.072,0.782,1.804c0,0.771-0.309,1.386-0.926,1.846c-0.616,0.46-1.427,0.689-2.431,0.689c-0.965,0-1.806-0.251-2.522-0.753
		c-0.717-0.503-1.064-1.211-1.043-2.127l0.013-0.038h1.525c0,0.558,0.196,0.979,0.59,1.261c0.394,0.283,0.872,0.425,1.438,0.425
		c0.561,0,0.996-0.115,1.307-0.348S134.897,52.799,134.897,52.402z"/>
	<path fill="#FFFFFF" d="M145.16,50.979c0,1.137-0.363,2.079-1.091,2.826c-0.729,0.747-1.675,1.12-2.839,1.12
		c-1.134,0-2.058-0.373-2.771-1.12c-0.712-0.747-1.068-1.689-1.068-2.826v-1.673c0-1.133,0.355-2.073,1.065-2.822
		c0.711-0.749,1.635-1.124,2.773-1.124c1.16,0,2.105,0.375,2.835,1.124c0.73,0.749,1.095,1.689,1.095,2.822V50.979z M143.577,49.293
		c0-0.774-0.211-1.411-0.633-1.909c-0.421-0.498-0.993-0.747-1.714-0.747c-0.7,0-1.25,0.249-1.652,0.747s-0.603,1.135-0.603,1.909
		v1.686c0,0.783,0.202,1.426,0.605,1.926c0.404,0.5,0.954,0.75,1.649,0.75c0.726,0,1.298-0.249,1.718-0.747
		c0.419-0.498,0.629-1.141,0.629-1.929V49.293z"/>
	<path fill="#FFFFFF" d="M151.852,50.825h-3.826v3.966h-1.584v-9.298h6.075v1.245h-4.491v2.842h3.826V50.825z"/>
	<path fill="#FFFFFF" d="M160.062,46.738h-2.934v8.053h-1.583v-8.053h-2.888v-1.245h7.404V46.738z"/>
	<path fill="#FFFFFF" d="M168.186,52.198h0.039l1.396-6.705h1.668l-2.255,9.298h-1.44l-1.896-6.615h-0.039l-1.903,6.615h-1.447
		l-2.248-9.298h1.661l1.408,6.699h0.039l1.806-6.699h1.395L168.186,52.198z"/>
	<path fill="#FFFFFF" d="M177.015,52.62h-3.363l-0.729,2.171h-1.636l3.311-9.298h1.506l3.271,9.298h-1.636L177.015,52.62z
		 M174.088,51.323h2.497l-1.219-3.665h-0.039L174.088,51.323z"/>
	<path fill="#FFFFFF" d="M181.73,50.934v3.857h-1.584v-9.298h3.266c1.056,0,1.873,0.234,2.45,0.702
		c0.578,0.469,0.867,1.137,0.867,2.006c0,0.48-0.127,0.895-0.381,1.242c-0.255,0.347-0.625,0.624-1.111,0.833
		c0.534,0.166,0.92,0.437,1.156,0.811c0.237,0.375,0.355,0.839,0.355,1.393v0.772c0,0.272,0.035,0.539,0.104,0.798
		c0.069,0.26,0.185,0.458,0.346,0.595v0.146h-1.63c-0.174-0.141-0.284-0.359-0.332-0.658c-0.048-0.298-0.072-0.596-0.072-0.894
		v-0.747c0-0.477-0.14-0.855-0.42-1.137s-0.662-0.422-1.145-0.422H181.73z M181.73,49.688h1.597c0.635,0,1.098-0.119,1.389-0.357
		s0.437-0.603,0.437-1.092c0-0.469-0.144-0.836-0.431-1.102c-0.286-0.266-0.723-0.399-1.31-0.399h-1.682V49.688z"/>
	<path fill="#FFFFFF" d="M193.538,50.608h-3.715v2.943h4.38v1.239h-5.964v-9.298h5.918v1.245h-4.334v2.625h3.715V50.608z"/>
	<path fill="#FFFFFF" d="M204.782,46.738h-2.934v8.053h-1.583v-8.053h-2.888v-1.245h7.404V46.738z"/>
	<path fill="#FFFFFF" d="M210.886,50.608h-3.715v2.943h4.38v1.239h-5.964v-9.298h5.918v1.245h-4.334v2.625h3.715V50.608z"/>
	<path fill="#FFFFFF" d="M217.519,52.62h-3.363l-0.729,2.171h-1.636l3.311-9.298h1.506l3.271,9.298h-1.636L217.519,52.62z
		 M214.592,51.323h2.497l-1.219-3.665h-0.039L214.592,51.323z"/>
	<path fill="#FFFFFF" d="M225.454,52.646h0.039l2.744-7.152h2.021v9.298h-1.584v-6.68l-0.039-0.006l-2.613,6.686h-1.089
		l-2.659-6.813l-0.039,0.013v6.801h-1.584v-9.298h2.079L225.454,52.646z"/>
	<path fill="#FFFFFF" d="M236.857,52.402c0-0.387-0.14-0.704-0.42-0.951s-0.777-0.468-1.489-0.664
		c-1.021-0.276-1.809-0.64-2.363-1.089c-0.554-0.449-0.831-1.035-0.831-1.759c0-0.75,0.305-1.367,0.913-1.853
		s1.391-0.728,2.346-0.728c1.026,0,1.846,0.27,2.461,0.808c0.615,0.539,0.911,1.204,0.89,1.995l-0.013,0.039h-1.525
		c0-0.49-0.166-0.879-0.499-1.169c-0.332-0.289-0.774-0.435-1.326-0.435c-0.534,0-0.946,0.124-1.235,0.371s-0.433,0.566-0.433,0.958
		c0,0.357,0.158,0.652,0.476,0.884c0.316,0.232,0.843,0.452,1.577,0.661c0.995,0.272,1.753,0.644,2.274,1.114
		s0.782,1.072,0.782,1.804c0,0.771-0.309,1.386-0.926,1.846c-0.616,0.46-1.427,0.689-2.431,0.689c-0.965,0-1.806-0.251-2.522-0.753
		c-0.717-0.503-1.064-1.211-1.043-2.127l0.013-0.038h1.525c0,0.558,0.196,0.979,0.59,1.261c0.394,0.283,0.872,0.425,1.438,0.425
		c0.561,0,0.996-0.115,1.307-0.348S236.857,52.799,236.857,52.402z"/>
</g>
<g>
	<path fill="#FFD966" d="M28.468,37.081h-4.126L13.118,7.328h5.634l3.727,10.636c0.946,2.754,1.759,5.179,2.44,7.273
		c0.68,2.095,1.198,3.7,1.553,4.812c0.325-1.112,0.82-2.688,1.486-4.724c0.666-2.036,1.501-4.461,2.507-7.273l3.86-10.724h5.368
		L28.468,37.081z"/>
	<path fill="#FFD966" d="M60.01,26.489c0,1.758,0.111,3.23,0.333,4.417c0.222,1.187,0.466,2.146,0.732,2.879
		c0.325,0.879,0.68,1.567,1.064,2.065l-3.948,1.582c-0.385-0.381-0.74-0.835-1.065-1.362c-0.266-0.469-0.518-1.033-0.754-1.692
		c-0.237-0.659-0.385-1.442-0.444-2.351c-0.503,1.758-1.309,3.084-2.418,3.977c-1.109,0.895-2.61,1.341-4.503,1.341
		c-1.391,0-2.595-0.257-3.616-0.77c-1.021-0.512-1.871-1.244-2.551-2.197c-0.681-0.951-1.184-2.102-1.509-3.45
		c-0.326-1.347-0.488-2.841-0.488-4.482c0-1.67,0.259-3.215,0.776-4.637c0.517-1.42,1.242-2.644,2.174-3.669
		c0.932-1.025,2.048-1.831,3.35-2.417c1.301-0.585,2.735-0.879,4.303-0.879c0.887,0,1.812,0.066,2.773,0.198
		c0.961,0.132,1.855,0.271,2.684,0.417c0.828,0.147,1.53,0.286,2.107,0.417c0.577,0.132,0.909,0.213,0.998,0.242V26.489z
		 M51.892,33.082c0.621-0.498,1.16-1.149,1.619-1.956c0.458-0.806,0.813-1.729,1.065-2.769c0.251-1.04,0.377-2.102,0.377-3.187
		v-6.329c-0.296-0.088-0.74-0.19-1.331-0.308c-0.592-0.117-1.124-0.176-1.597-0.176c-1.124,0-2.048,0.191-2.772,0.571
		c-0.725,0.381-1.309,0.908-1.752,1.582c-0.444,0.674-0.754,1.48-0.932,2.417c-0.178,0.938-0.266,1.963-0.266,3.077
		c0,1.026,0.029,2.008,0.088,2.944c0.059,0.938,0.214,1.773,0.466,2.506c0.251,0.732,0.614,1.312,1.087,1.735
		c0.473,0.425,1.109,0.638,1.908,0.638C50.59,33.829,51.271,33.58,51.892,33.082z"/>
	<path fill="#FFD966" d="M66.931,35.872c-0.799-0.923-1.198-2.102-1.198-3.537V6.097l5.057-0.923v26.678
		c0,0.674,0.133,1.143,0.399,1.406s0.65,0.396,1.153,0.396c0.295,0,0.584-0.015,0.865-0.044c0.281-0.029,0.54-0.073,0.776-0.132
		c0.266-0.059,0.502-0.117,0.71-0.176l0.621,3.164c-0.385,0.146-0.814,0.278-1.287,0.396c-0.415,0.117-0.902,0.213-1.464,0.286
		c-0.563,0.072-1.198,0.109-1.908,0.109C68.972,37.257,67.729,36.795,66.931,35.872z"/>
	<path fill="#FFD966" d="M91.997,15.194h5.058v11.295c0,1.758,0.111,3.23,0.333,4.417c0.222,1.187,0.466,2.146,0.732,2.879
		c0.325,0.879,0.68,1.567,1.065,2.065l-3.948,1.582c-0.355-0.322-0.681-0.732-0.976-1.23c-0.237-0.41-0.481-0.915-0.732-1.517
		c-0.252-0.6-0.422-1.311-0.51-2.131c-0.799,1.729-1.923,2.959-3.372,3.691s-2.958,1.099-4.525,1.099c-2.337,0-4-0.674-4.991-2.021
		c-0.991-1.348-1.486-3.193-1.486-5.538V15.194H83.7v14.503c0,1.23,0.222,2.198,0.666,2.901c0.444,0.703,1.198,1.055,2.263,1.055
		c0.65,0,1.293-0.183,1.93-0.55c0.636-0.366,1.212-0.886,1.73-1.56c0.517-0.674,0.932-1.487,1.242-2.439s0.466-2.014,0.466-3.187
		V15.194z"/>
	<path fill="#FFD966" d="M102.71,21.479c0.547-1.494,1.301-2.747,2.263-3.757c0.96-1.011,2.092-1.772,3.394-2.286
		c1.301-0.512,2.707-0.769,4.215-0.769c1.331,0,2.462,0.162,3.394,0.483c0.932,0.323,1.692,0.762,2.285,1.318
		c0.591,0.557,1.027,1.216,1.309,1.978c0.281,0.762,0.421,1.582,0.421,2.461c0,1.055-0.296,2.059-0.887,3.011
		c-0.592,0.952-1.442,1.787-2.551,2.505c-1.109,0.718-2.448,1.29-4.015,1.714c-1.568,0.425-3.327,0.652-5.279,0.681
		c0.089,0.675,0.229,1.312,0.421,1.912c0.192,0.601,0.473,1.128,0.843,1.582c0.37,0.455,0.85,0.813,1.442,1.077
		c0.591,0.264,1.331,0.396,2.218,0.396c0.65,0,1.346-0.073,2.085-0.22c0.739-0.146,1.419-0.322,2.041-0.527
		c0.739-0.234,1.464-0.498,2.174-0.791l1.331,3.12c-0.77,0.381-1.597,0.718-2.484,1.011c-0.77,0.264-1.657,0.498-2.662,0.703
		c-1.006,0.205-2.07,0.308-3.194,0.308c-1.715,0-3.18-0.257-4.392-0.77c-1.213-0.512-2.204-1.237-2.972-2.175
		c-0.77-0.938-1.331-2.065-1.686-3.385c-0.355-1.318-0.532-2.783-0.532-4.395C101.89,24.703,102.163,22.973,102.71,21.479z
		 M109.764,18.776c-0.636,0.455-1.146,1.04-1.53,1.758c-0.385,0.718-0.659,1.524-0.821,2.417c-0.163,0.895-0.259,1.795-0.289,2.703
		c1.42-0.059,2.625-0.242,3.616-0.549c0.991-0.308,1.797-0.688,2.418-1.143c0.621-0.454,1.072-0.945,1.353-1.473
		c0.281-0.527,0.421-1.055,0.421-1.582c0-0.85-0.251-1.531-0.754-2.043c-0.503-0.512-1.169-0.769-1.997-0.769
		C111.206,18.095,110.4,18.322,109.764,18.776z"/>
	<path fill="#FFFFFF" d="M140.93,13.305c-0.709-0.762-1.457-1.34-2.24-1.736c-0.783-0.396-1.693-0.593-2.729-0.593
		c-1.271,0-2.344,0.286-3.217,0.857c-0.873,0.571-1.574,1.362-2.107,2.373c-0.531,1.011-0.916,2.19-1.152,3.538
		c-0.238,1.348-0.355,2.798-0.355,4.351c0,1.554,0.111,3.004,0.332,4.351c0.223,1.348,0.607,2.535,1.154,3.56
		c0.547,1.026,1.287,1.832,2.219,2.418s2.107,0.879,3.527,0.879c0.68,0,1.33-0.059,1.951-0.176s1.189-0.242,1.707-0.374
		s0.947-0.256,1.287-0.373s0.555-0.19,0.645-0.22l1.242,3.691l-0.578,0.22c-0.385,0.146-0.924,0.315-1.619,0.505
		c-0.695,0.191-1.523,0.367-2.484,0.528c-0.961,0.16-2.018,0.241-3.172,0.241c-3.963,0-6.943-1.253-8.939-3.758
		s-2.995-6.175-2.995-11.009c0-2.314,0.267-4.431,0.799-6.351c0.532-1.918,1.338-3.566,2.418-4.944
		c1.079-1.376,2.44-2.446,4.081-3.208c1.643-0.762,3.572-1.143,5.791-1.143c1.773,0,3.23,0.323,4.369,0.967
		c1.139,0.645,2.063,1.377,2.773,2.197L140.93,13.305z"/>
	<path fill="#FFFFFF" d="M162.713,17.656c1.537,1.993,2.307,4.732,2.307,8.218c0,1.641-0.207,3.172-0.621,4.593
		c-0.415,1.422-1.043,2.652-1.886,3.691c-0.843,1.041-1.9,1.861-3.172,2.461c-1.272,0.601-2.751,0.901-4.437,0.901
		s-3.143-0.257-4.37-0.77c-1.228-0.512-2.24-1.252-3.039-2.219c-0.798-0.967-1.383-2.139-1.752-3.517
		c-0.37-1.376-0.555-2.929-0.555-4.658c0-1.67,0.207-3.215,0.621-4.637c0.414-1.421,1.043-2.651,1.886-3.691s1.899-1.86,3.172-2.461
		c1.271-0.6,2.751-0.901,4.437-0.901C158.704,14.667,161.174,15.664,162.713,17.656z M152.753,18.93
		c-0.548,0.381-0.977,0.916-1.287,1.604c-0.311,0.689-0.525,1.494-0.643,2.417c-0.119,0.923-0.178,1.912-0.178,2.967
		c0,1.084,0.066,2.109,0.199,3.076c0.134,0.967,0.377,1.81,0.732,2.527c0.354,0.719,0.835,1.282,1.441,1.692
		s1.383,0.615,2.329,0.615c0.857,0,1.56-0.19,2.107-0.571c0.547-0.381,0.977-0.916,1.287-1.604s0.524-1.486,0.643-2.396
		c0.118-0.907,0.178-1.89,0.178-2.944c0-1.083-0.066-2.109-0.199-3.076c-0.134-0.967-0.377-1.816-0.732-2.549
		c-0.354-0.732-0.836-1.303-1.441-1.714c-0.606-0.41-1.383-0.615-2.329-0.615C154.002,18.359,153.3,18.55,152.753,18.93z"/>
	<path fill="#FFFFFF" d="M185.56,26.621c-0.148,0.821-0.259,1.575-0.332,2.264c-0.074,0.688-0.111,1.312-0.111,1.867
		c0,1.437,0.185,2.543,0.555,3.318c0.369,0.777,0.717,1.399,1.042,1.868l-3.992,1.582c-0.443-0.498-0.807-1.113-1.087-1.846
		c-0.281-0.732-0.422-1.567-0.422-2.505c0-0.381,0.029-0.872,0.089-1.473c0.059-0.601,0.133-1.281,0.222-2.044l-0.754,1.758
		c-0.503,1.144-1.05,2.104-1.642,2.879c-0.592,0.777-1.22,1.399-1.886,1.868c-0.665,0.469-1.36,0.799-2.085,0.989
		c-0.725,0.189-1.472,0.285-2.24,0.285c-1.064,0-1.968-0.205-2.706-0.615c-0.74-0.41-1.347-0.959-1.819-1.648
		c-0.474-0.688-0.82-1.465-1.042-2.329c-0.223-0.863-0.333-1.75-0.333-2.659c0-2.08,0.273-4.028,0.82-5.845
		c0.547-1.816,1.354-3.406,2.418-4.769c1.065-1.362,2.366-2.432,3.904-3.208c1.537-0.776,3.313-1.165,5.323-1.165
		c0.385,0,0.851,0.022,1.398,0.066c0.547,0.044,1.204,0.154,1.974,0.33l1.863-9.493l5.014-0.879L185.56,26.621z M176.775,32.599
		c0.739-0.82,1.42-1.824,2.041-3.011s1.16-2.461,1.619-3.824c0.458-1.362,0.806-2.6,1.043-3.714l0.621-3.032
		c-0.355-0.176-0.762-0.292-1.22-0.352c-0.459-0.059-0.896-0.088-1.31-0.088c-1.331,0-2.462,0.374-3.394,1.121
		s-1.686,1.7-2.263,2.856c-0.576,1.158-0.991,2.433-1.242,3.824c-0.252,1.392-0.377,2.718-0.377,3.977
		c0,1.29,0.185,2.191,0.555,2.703c0.369,0.513,0.938,0.77,1.708,0.77C175.297,33.829,176.036,33.419,176.775,32.599z"/>
	<path fill="#FFFFFF" d="M190.728,24.336c0.547-1.846,1.346-3.457,2.396-4.834c1.05-1.377,2.344-2.468,3.883-3.274
		c1.537-0.805,3.297-1.208,5.279-1.208c2.307,0,3.948,0.425,4.924,1.274c0.977,0.85,1.464,2.007,1.464,3.472
		c0,1.29-0.332,2.461-0.998,3.516c-0.665,1.055-1.597,1.978-2.795,2.769c-1.197,0.791-2.625,1.428-4.281,1.912
		c-1.656,0.484-3.476,0.769-5.456,0.857c-0.03,0.264-0.045,0.527-0.045,0.791s0,0.514,0,0.747c0,1.378,0.295,2.33,0.888,2.857
		c0.591,0.527,1.375,0.791,2.351,0.791c0.592,0,1.265-0.088,2.019-0.264c0.755-0.176,1.486-0.381,2.196-0.615
		c0.799-0.264,1.642-0.571,2.529-0.923l1.021,3.164c-0.888,0.41-1.819,0.776-2.795,1.099c-0.829,0.293-1.769,0.549-2.817,0.77
		c-1.051,0.22-2.107,0.329-3.172,0.329c-1.391,0-2.559-0.205-3.505-0.615c-0.947-0.41-1.708-0.959-2.285-1.648
		c-0.577-0.688-0.991-1.472-1.242-2.351c-0.252-0.879-0.377-1.787-0.377-2.726C189.907,28.145,190.181,26.182,190.728,24.336z
		 M199.356,18.996c-0.592,0.396-1.116,0.93-1.574,1.604c-0.459,0.674-0.865,1.45-1.221,2.329c-0.354,0.879-0.65,1.788-0.887,2.725
		c1.331-0.088,2.491-0.3,3.482-0.637c0.99-0.336,1.818-0.754,2.484-1.252c0.665-0.498,1.168-1.025,1.509-1.583
		c0.339-0.556,0.51-1.099,0.51-1.626c0-0.674-0.186-1.201-0.555-1.582c-0.37-0.38-0.983-0.571-1.841-0.571
		C200.584,18.403,199.948,18.601,199.356,18.996z"/>
	<path fill="#FFFFFF" d="M224.645,21.04c-0.385-0.41-0.783-0.747-1.197-1.011c-0.415-0.264-0.962-0.396-1.642-0.396
		c-0.415,0-0.821,0.191-1.22,0.571c-0.399,0.381-0.784,0.887-1.154,1.516c-0.37,0.63-0.717,1.348-1.042,2.154
		c-0.326,0.806-0.606,1.619-0.843,2.439l-2.13,10.768h-4.969l2.263-11.075c0.178-0.85,0.303-1.641,0.377-2.373
		c0.073-0.732,0.111-1.392,0.111-1.978c0-1.611-0.148-2.783-0.444-3.516s-0.518-1.216-0.665-1.451l4.037-1.582
		c0.325,0.411,0.599,0.909,0.82,1.494c0.223,0.586,0.333,1.334,0.333,2.242c0,0.615-0.052,1.296-0.155,2.043
		s-0.185,1.458-0.244,2.132c0.621-2.666,1.435-4.644,2.44-5.934c1.005-1.289,2.336-1.934,3.993-1.934
		c1.005,0,1.818,0.169,2.439,0.505c0.621,0.337,1.109,0.769,1.464,1.296L224.645,21.04z"/>
	<path fill="#FFFFFF" d="M237.066,15.019c0.917,0,1.715,0.11,2.396,0.33s1.257,0.521,1.73,0.901c0.473,0.381,0.85,0.828,1.132,1.341
		c0.28,0.513,0.48,1.048,0.599,1.604l-3.683,1.45c-0.118-0.264-0.222-0.534-0.311-0.813c-0.089-0.278-0.222-0.527-0.399-0.747
		c-0.177-0.22-0.406-0.396-0.688-0.527s-0.658-0.198-1.131-0.198c-1.006,0-1.724,0.279-2.151,0.835
		c-0.43,0.557-0.644,1.128-0.644,1.714c0,0.411,0.081,0.777,0.244,1.099c0.162,0.323,0.361,0.615,0.599,0.879
		c0.236,0.264,0.495,0.499,0.776,0.704c0.28,0.205,0.539,0.367,0.776,0.483l1.286,0.703c0.474,0.264,0.939,0.549,1.397,0.857
		c0.459,0.308,0.851,0.681,1.176,1.121s0.592,0.975,0.799,1.604s0.311,1.399,0.311,2.307c0,0.938-0.185,1.824-0.555,2.659
		s-0.909,1.568-1.619,2.197c-0.71,0.631-1.597,1.129-2.662,1.494c-1.064,0.366-2.307,0.55-3.727,0.55
		c-0.946,0-1.856-0.109-2.729-0.329c-0.872-0.221-1.648-0.462-2.329-0.726c-0.77-0.322-1.508-0.674-2.218-1.055l1.952-3.472
		c0.621,0.381,1.257,0.718,1.907,1.011c0.532,0.264,1.116,0.498,1.753,0.703c0.636,0.205,1.234,0.308,1.797,0.308
		c1.123,0,1.959-0.249,2.506-0.747s0.821-1.084,0.821-1.758c0-0.996-0.274-1.751-0.821-2.264s-1.176-0.96-1.885-1.341l-1.109-0.571
		c-0.355-0.176-0.74-0.396-1.153-0.659c-0.415-0.264-0.807-0.607-1.176-1.033c-0.37-0.424-0.673-0.959-0.91-1.604
		c-0.236-0.644-0.354-1.436-0.354-2.374c0-0.937,0.178-1.809,0.532-2.615c0.355-0.806,0.88-1.509,1.575-2.11
		c0.694-0.6,1.56-1.069,2.596-1.406C234.508,15.188,235.706,15.019,237.066,15.019z"/>
</g>
<g>
	<rect x="0.641" fill="#FFFFFF" width="5" height="41.726"/>
	<rect x="4.691" fill="#FFFFFF" width="6.559" height="3.75"/>
	<rect x="4.691" y="37.976" fill="#FFFFFF" width="6.559" height="3.75"/>
</g>
<g>
	<rect x="250" fill="#FFFFFF" width="5" height="41.726"/>
	<rect x="244.391" y="37.976" fill="#FFFFFF" width="6.559" height="3.75"/>
	<rect x="244.391" fill="#FFFFFF" width="6.559" height="3.75"/>
</g>
</svg>
